<svg width="175" height="31" viewBox="0 0 175 31" fill="none" xmlns="http://www.w3.org/2000/svg">
<g id="Social">
<path id="Whatsapp" d="M151.906 24.8235L152.995 25.4601C154.833 26.5317 156.923 27.0943 159.05 27.09C161.431 27.09 163.759 26.3838 165.739 25.0609C167.719 23.7379 169.262 21.8575 170.174 19.6575C171.085 17.4575 171.323 15.0366 170.859 12.7011C170.394 10.3656 169.247 8.22025 167.564 6.53643C165.88 4.85261 163.734 3.70591 161.399 3.24134C159.063 2.77678 156.643 3.01521 154.443 3.92649C152.242 4.83777 150.362 6.38096 149.039 8.36093C147.716 10.3409 147.01 12.6687 147.01 15.05C147.01 17.2112 147.577 19.2836 148.641 21.1061L149.277 22.1957L148.294 25.8092L151.906 24.8235ZM144.006 30.1L146.041 22.6231C144.7 20.3248 143.996 17.7108 144 15.05C144 6.73788 150.738 0 159.05 0C167.362 0 174.1 6.73788 174.1 15.05C174.1 23.3621 167.362 30.1 159.05 30.1C156.39 30.1043 153.777 29.4004 151.48 28.0607L144.006 30.1ZM153.618 7.98853C153.82 7.97348 154.023 7.97348 154.225 7.98251C154.306 7.98853 154.388 7.99757 154.469 8.0066C154.708 8.03368 154.971 8.17967 155.06 8.38134C155.509 9.39872 155.945 10.4236 156.367 11.4515C156.46 11.6803 156.404 11.9738 156.227 12.2597C156.104 12.4531 155.972 12.64 155.831 12.8196C155.661 13.0378 155.295 13.4381 155.295 13.4381C155.295 13.4381 155.146 13.6157 155.203 13.837C155.224 13.9212 155.294 14.0431 155.357 14.1455L155.446 14.2885C155.831 14.9311 156.349 15.5828 156.981 16.1968C157.161 16.3714 157.337 16.5505 157.527 16.7175C158.231 17.3391 159.029 17.8463 159.89 18.2225L159.897 18.2255C160.025 18.2812 160.09 18.3113 160.277 18.3911C160.37 18.4302 160.466 18.4648 160.564 18.4904C160.665 18.5162 160.772 18.5113 160.87 18.4765C160.968 18.4417 161.054 18.3784 161.116 18.2948C162.206 16.9749 162.305 16.8891 162.314 16.8891V16.8921C162.39 16.8215 162.48 16.7679 162.578 16.735C162.676 16.702 162.78 16.6904 162.883 16.701C162.974 16.707 163.065 16.7235 163.15 16.7612C163.949 17.1269 165.257 17.6973 165.257 17.6973L166.133 18.0901C166.28 18.1608 166.414 18.3279 166.418 18.4889C166.425 18.5897 166.434 18.7523 166.399 19.0503C166.351 19.4401 166.233 19.9081 166.116 20.1534C166.036 20.3209 165.929 20.4743 165.8 20.608C165.648 20.7674 165.482 20.9125 165.303 21.0414C165.242 21.0878 165.179 21.133 165.115 21.1768C164.928 21.2956 164.736 21.4061 164.539 21.5079C164.151 21.7138 163.723 21.8319 163.285 21.8541C163.007 21.8691 162.728 21.8902 162.448 21.8752C162.436 21.8752 161.593 21.7442 161.593 21.7442C159.454 21.1814 157.475 20.1271 155.814 18.665C155.474 18.3655 155.16 18.0434 154.838 17.7229C153.498 16.3909 152.487 14.9537 151.873 13.5962C151.558 12.9299 151.389 12.2046 151.375 11.4681C151.368 10.5543 151.667 9.6646 152.223 8.93969C152.333 8.79822 152.437 8.65073 152.616 8.48067C152.807 8.30007 152.928 8.20375 153.059 8.13753C153.233 8.05029 153.423 7.9991 153.617 7.98703L153.618 7.98853Z" fill="#101010"/>
<path id="Telegram" d="M111.05 27.09C114.243 27.09 117.306 25.8215 119.564 23.5636C121.822 21.3056 123.09 18.2432 123.09 15.05C123.09 11.8568 121.822 8.79437 119.564 6.53643C117.306 4.2785 114.243 3.01 111.05 3.01C107.857 3.01 104.794 4.2785 102.536 6.53643C100.278 8.79437 99.01 11.8568 99.01 15.05C99.01 18.2432 100.278 21.3056 102.536 23.5636C104.794 25.8215 107.857 27.09 111.05 27.09ZM111.05 30.1C102.738 30.1 96 23.3621 96 15.05C96 6.73789 102.738 0 111.05 0C119.362 0 126.1 6.73789 126.1 15.05C126.1 23.3621 119.362 30.1 111.05 30.1ZM106.369 16.8109L102.61 15.6385C101.797 15.3901 101.793 14.8303 102.792 14.4284L117.44 8.76964C118.291 8.42348 118.772 8.86144 118.497 9.95858L116.003 21.7277C115.828 22.566 115.324 22.7661 114.624 22.3794L110.785 19.5379L108.996 21.2656C108.812 21.4432 108.663 21.5952 108.38 21.6329C108.099 21.672 107.867 21.5877 107.697 21.1212L106.388 16.8003L106.369 16.8124V16.8109Z" fill="#101010"/>
<path id="Instagram" d="M63.3498 10.535C62.1524 10.535 61.0039 11.0107 60.1572 11.8574C59.3105 12.7041 58.8348 13.8525 58.8348 15.05C58.8348 16.2475 59.3105 17.3959 60.1572 18.2426C61.0039 19.0893 62.1524 19.565 63.3498 19.565C64.5473 19.565 65.6957 19.0893 66.5424 18.2426C67.3891 17.3959 67.8648 16.2475 67.8648 15.05C67.8648 13.8525 67.3891 12.7041 66.5424 11.8574C65.6957 11.0107 64.5473 10.535 63.3498 10.535ZM63.3498 7.525C65.3456 7.525 67.2596 8.31781 68.6708 9.72902C70.082 11.1402 70.8748 13.0542 70.8748 15.05C70.8748 17.0458 70.082 18.9598 68.6708 20.371C67.2596 21.7822 65.3456 22.575 63.3498 22.575C61.3541 22.575 59.44 21.7822 58.0288 20.371C56.6176 18.9598 55.8248 17.0458 55.8248 15.05C55.8248 13.0542 56.6176 11.1402 58.0288 9.72902C59.44 8.31781 61.3541 7.525 63.3498 7.525ZM73.1323 7.14875C73.1323 7.64769 72.9341 8.12619 72.5813 8.47899C72.2285 8.8318 71.75 9.03 71.2511 9.03C70.7521 9.03 70.2736 8.8318 69.9208 8.47899C69.568 8.12619 69.3698 7.64769 69.3698 7.14875C69.3698 6.64981 69.568 6.17131 69.9208 5.81851C70.2736 5.4657 70.7521 5.2675 71.2511 5.2675C71.75 5.2675 72.2285 5.4657 72.5813 5.81851C72.9341 6.17131 73.1323 6.64981 73.1323 7.14875ZM63.3498 3.01C59.6264 3.01 59.0184 3.02054 57.2862 3.09729C56.1062 3.15298 55.3146 3.311 54.5802 3.59695C53.927 3.84979 53.4559 4.1523 52.9548 4.65496C52.4837 5.11008 52.1215 5.6657 51.8952 6.28036C51.6093 7.01781 51.4513 7.80794 51.3971 8.98635C51.3188 10.6479 51.3098 11.2288 51.3098 15.05C51.3098 18.7734 51.3203 19.3814 51.3971 21.1136C51.4528 22.2921 51.6108 23.0852 51.8952 23.8181C52.1511 24.4728 52.4521 24.9439 52.9518 25.4435C53.4589 25.9492 53.93 26.2517 54.5772 26.5015C55.3206 26.789 56.1123 26.9485 57.2862 27.0027C58.9477 27.081 59.5286 27.09 63.3498 27.09C67.0732 27.09 67.6812 27.0795 69.4134 27.0027C70.5904 26.947 71.3835 26.789 72.1179 26.5046C72.7696 26.2502 73.2437 25.9477 73.7433 25.448C74.2505 24.9409 74.553 24.4698 74.8029 23.8226C75.0888 23.0807 75.2483 22.2875 75.3025 21.1136C75.3808 19.4521 75.3898 18.8712 75.3898 15.05C75.3898 11.3266 75.3793 10.7186 75.3025 8.98635C75.2468 7.80945 75.0888 7.0148 74.8029 6.28036C74.576 5.66633 74.2145 5.11092 73.7448 4.65496C73.2899 4.18367 72.7342 3.82145 72.1194 3.59544C71.382 3.30949 70.5904 3.15147 69.4134 3.09729C67.7519 3.01903 67.171 3.01 63.3498 3.01ZM63.3498 0C67.4389 0 67.9491 0.0150499 69.5534 0.0902999C71.1562 0.16555 72.2474 0.416885 73.2076 0.790125C74.2009 1.1724 75.0376 1.69011 75.8744 2.52539C76.6397 3.27773 77.2319 4.1878 77.6097 5.19225C77.9814 6.15093 78.2343 7.24356 78.3095 8.84639C78.3802 10.4507 78.3998 10.9609 78.3998 15.05C78.3998 19.1391 78.3848 19.6493 78.3095 21.2536C78.2343 22.8564 77.9814 23.9476 77.6097 24.9077C77.2329 25.9128 76.6406 26.823 75.8744 27.5746C75.1219 28.3396 74.2119 28.9317 73.2076 29.3099C72.2489 29.6816 71.1562 29.9345 69.5534 30.0097C67.9491 30.0804 67.4389 30.1 63.3498 30.1C59.2607 30.1 58.7505 30.085 57.1462 30.0097C55.5434 29.9345 54.4522 29.6816 53.4921 29.3099C52.4872 28.9328 51.577 28.3406 50.8252 27.5746C50.0598 26.8224 49.4676 25.9123 49.0899 24.9077C48.7167 23.9491 48.4654 22.8564 48.3901 21.2536C48.3194 19.6493 48.2998 19.1391 48.2998 15.05C48.2998 10.9609 48.3149 10.4507 48.3901 8.84639C48.4654 7.24206 48.7167 6.15244 49.0899 5.19225C49.4665 4.18718 50.0589 3.27687 50.8252 2.52539C51.5772 1.75969 52.4874 1.16747 53.4921 0.790125C54.4522 0.416885 55.5419 0.16555 57.1462 0.0902999C58.7505 0.0195649 59.2607 0 63.3498 0Z" fill="#101010"/>
<path id="VK" d="M0 7.99944C0 6.96133 0.575033 6.40157 1.7251 6.32015L6.15682 6.35068C6.45425 6.35068 6.65254 6.50334 6.75168 6.80867C7.20774 8.3353 7.71833 9.65328 8.28345 10.7626C8.84857 11.872 9.58719 13.1493 10.4993 14.5945C10.5786 14.7777 10.7075 14.8693 10.886 14.8693C11.0248 14.8693 11.1338 14.798 11.2131 14.6555L11.3024 14.3197L11.3321 9.03754C11.3321 8.67115 11.2478 8.42689 11.0793 8.30476C10.9108 8.18263 10.5985 8.09104 10.1424 8.02997C9.78547 7.96891 9.60702 7.745 9.60702 7.35826C9.60702 7.27683 9.61693 7.21577 9.63676 7.17506C10.0532 5.85198 11.2429 5.19044 13.2059 5.19044L14.8715 5.15991C15.625 5.15991 16.2496 5.35328 16.7454 5.74003C17.2411 6.12678 17.4889 6.73743 17.4889 7.57198V14.5029C17.6277 14.6046 17.7566 14.6555 17.8756 14.6555C18.173 14.6555 18.4308 14.4723 18.6489 14.1059C20.8301 10.9713 22.0099 8.8747 22.1883 7.81624C22.1883 7.79589 22.2082 7.745 22.2478 7.66358C22.3866 7.35826 22.6147 7.09364 22.9319 6.86973C23.2492 6.64583 23.5268 6.49317 23.7647 6.41175C23.844 6.37104 23.9333 6.35068 24.0324 6.35068H28.6426L28.94 6.38121C29.3366 6.38121 29.6439 6.57459 29.8621 6.96133C29.9414 7.08346 29.9959 7.21577 30.0256 7.35826C30.0554 7.50074 30.0752 7.64323 30.0851 7.78571C30.095 7.9282 30.1 8.00962 30.1 8.02997V8.2437C29.9612 9.07826 29.6092 9.96879 29.0441 10.9153C28.479 11.8618 27.7602 12.8846 26.8877 13.9838C26.0153 15.083 25.47 15.8056 25.2519 16.1516C25.0734 16.3959 24.9842 16.6198 24.9842 16.8233C24.9842 16.9862 25.0635 17.1694 25.2221 17.3729L29.5646 22.9909C29.8026 23.3166 29.9215 23.6728 29.9215 24.0596C29.9215 24.5277 29.7431 24.9145 29.3862 25.2198C29.0292 25.5251 28.6029 25.6981 28.1072 25.7388L27.6016 25.7694H23.0806C23.0608 25.7694 23.0211 25.7745 22.9617 25.7846C22.9022 25.7948 22.8625 25.7999 22.8427 25.7999C22.4065 25.7999 22 25.6065 21.6232 25.2198C21.4844 25.057 20.5525 23.856 18.8274 21.617C18.7282 21.4745 18.5894 21.3422 18.411 21.22C18.3317 21.5457 18.2276 22.0139 18.0987 22.6245C17.9698 23.2352 17.8756 23.6728 17.8161 23.9374L17.7269 24.4565C17.5286 25.1689 17.1122 25.5964 16.4777 25.7388L16.0613 25.7694H13.1464C11.5007 25.7694 9.85983 24.9959 8.22396 23.4489C6.58809 21.9019 5.11581 19.902 3.80711 17.4493C2.49842 14.9965 1.27895 12.1417 0.148715 8.88488C0.0495718 8.62027 0 8.32512 0 7.99944ZM17.8756 15.9074C17.4592 15.9074 17.0824 15.7903 16.7454 15.5562C16.4083 15.3222 16.2397 15.0016 16.2397 14.5945V7.57198C16.2397 7.16488 16.1406 6.87482 15.9423 6.70181C15.744 6.52879 15.397 6.44228 14.9013 6.44228L13.2059 6.50334C12.3533 6.50334 11.7089 6.65601 11.2726 6.96133C12.1451 7.38879 12.5813 8.08086 12.5813 9.03754V14.4113C12.5417 14.9201 12.3434 15.3425 11.9865 15.6784C11.6295 16.0142 11.233 16.1822 10.7967 16.1822C10.2019 16.1822 9.74582 15.887 9.42856 15.2967C7.88192 12.8948 6.73185 10.6151 5.97836 8.45743L5.71067 7.66358L1.75484 7.63305C1.49707 7.63305 1.35331 7.64831 1.32357 7.67885C1.29382 7.70938 1.27895 7.79589 1.27895 7.93837C1.27895 8.12157 1.29878 8.31494 1.33844 8.51849L1.96304 10.2283C3.62866 14.6454 5.43803 18.1261 7.39116 20.6704C9.34429 23.2148 11.2627 24.487 13.1464 24.487H16.1208C16.2397 24.487 16.329 24.4514 16.3884 24.3801C16.4479 24.3089 16.4975 24.1715 16.5372 23.968L16.5966 23.6626L17.1618 20.9758C17.3204 20.6094 17.4592 20.3651 17.5782 20.243C17.7963 20.0191 18.0541 19.9071 18.3515 19.9071C18.8274 19.9071 19.3132 20.2023 19.8089 20.7926L22.3371 24.0901C22.4957 24.3547 22.6642 24.487 22.8427 24.487H27.7503C28.3452 24.487 28.6426 24.3343 28.6426 24.029C28.6426 23.9272 28.6128 23.8255 28.5534 23.7237L24.2406 18.1973C23.9035 17.7699 23.735 17.3119 23.735 16.8233C23.735 16.3348 23.8936 15.8667 24.2109 15.4188C24.4686 15.0117 24.9693 14.3349 25.7129 13.3884C26.4565 12.4419 27.1059 11.5565 27.6611 10.7321C28.2163 9.90772 28.5831 9.15968 28.7616 8.48796L28.8508 8.09104C28.831 8.05033 28.821 7.98417 28.821 7.89257C28.821 7.80098 28.8111 7.72465 28.7913 7.66358H24.1216C23.8242 7.78571 23.5863 7.96891 23.4078 8.21317L23.2293 8.79328C22.7336 10.1978 21.4348 12.3656 19.333 15.2967C18.9166 15.7038 18.4308 15.9074 17.8756 15.9074Z" fill="#101010"/>
</g>
</svg>
