<svg width="20" height="20" viewBox="0 0 20 20" fill="none" xmlns="http://www.w3.org/2000/svg">
<g id="Lang" clip-path="url(#clip0_1_188)">
<g id="Group">
<path id="Vector" d="M1.66666 10.0001C1.66666 14.6026 5.3975 18.3334 10 18.3334C14.6025 18.3334 18.3333 14.6026 18.3333 10.0001C18.3333 5.39758 14.6025 1.66675 10 1.66675C5.3975 1.66675 1.66666 5.39758 1.66666 10.0001Z" stroke="#838383" stroke-width="1.5" stroke-linecap="round" stroke-linejoin="round"/>
<path id="Vector_2" d="M10.8333 1.7085C10.8333 1.7085 13.3333 5.00016 13.3333 10.0002C13.3333 15.0002 10.8333 18.2918 10.8333 18.2918" stroke="#838383" stroke-width="1.5" stroke-linecap="round" stroke-linejoin="round"/>
<path id="Vector_3" d="M9.16666 18.2918C9.16666 18.2918 6.66666 15.0002 6.66666 10.0002C6.66666 5.00016 9.16666 1.7085 9.16666 1.7085" stroke="#838383" stroke-width="1.5" stroke-linecap="round" stroke-linejoin="round"/>
<path id="Vector_4" d="M2.19167 12.9167H17.8083" stroke="#838383" stroke-width="1.5" stroke-linecap="round" stroke-linejoin="round"/>
<path id="Vector_5" d="M2.19167 7.0835H17.8083" stroke="#838383" stroke-width="1.5" stroke-linecap="round" stroke-linejoin="round"/>
</g>
</g>
<defs>
<clipPath id="clip0_1_188">
<rect width="20" height="20" fill="white"/>
</clipPath>
</defs>
</svg>
